<svg width="33" height="32" viewBox="0 0 33 32" fill="none" xmlns="http://www.w3.org/2000/svg">
<path d="M3.16666 22.747H16.5M29.8333 20.0002C29.8333 25.1604 25.66 29.334 20.5 29.334L21.9 27.0005M3.16666 11.9998C3.16666 6.83955 7.33999 2.66602 12.5 2.66602L11.1 4.99946M6.12662 18.0001H13.54C15.9134 18.0001 16.5 18.5868 16.5 20.9336V26.4138C16.5 28.7606 15.9134 29.3473 13.54 29.3473H6.12662C3.75328 29.3473 3.16666 28.7606 3.16666 26.4138V20.9336C3.16666 18.5868 3.75328 18.0001 6.12662 18.0001ZM31.1667 8.66631C31.1667 11.9802 28.4804 14.6666 25.1667 14.6666C21.8529 14.6666 19.1667 11.9802 19.1667 8.66631C19.1667 5.35244 21.8529 2.66602 25.1667 2.66602C28.4804 2.66602 31.1667 5.35244 31.1667 8.66631Z" stroke="#F4A13E" stroke-width="1.5" stroke-linecap="round" stroke-linejoin="round"/>
</svg>
