<svg width="42" height="42" viewBox="0 0 42 42" fill="none" xmlns="http://www.w3.org/2000/svg">
<circle opacity="0.3" cx="21" cy="21.0001" r="21" fill="#37B24D"/>
<path d="M19.1987 14.1008C19.1987 12.974 20.1121 12.0606 21.2389 12.0606C22.3656 12.0606 23.2791 12.974 23.2791 14.1008C25.6662 15.2296 27.2356 17.5836 27.3594 20.2213L27.3594 23.2816C27.5151 24.5678 28.2723 25.7035 29.3996 26.3419H13.0781C14.2054 25.7035 14.9626 24.5678 15.1183 23.2816V20.2213C15.2421 17.5836 16.8115 15.2296 19.1987 14.1008Z" stroke="#37B24D" stroke-width="1.5" stroke-linecap="round" stroke-linejoin="round"/>
<path d="M18.1797 26.3419V27.362C18.1797 29.0521 19.5498 30.4222 21.24 30.4222C22.9301 30.4222 24.3002 29.0521 24.3002 27.362V26.3419" stroke="#37B24D" stroke-width="1.5" stroke-linecap="round" stroke-linejoin="round"/>
<path d="M30.4205 15.8625C29.7513 14.4071 28.7797 13.111 27.5703 12.0606" stroke="#37B24D" stroke-width="1.5" stroke-linecap="round" stroke-linejoin="round"/>
<path d="M12.0625 15.8625C12.731 14.4073 13.7019 13.1112 14.9106 12.0606" stroke="#37B24D" stroke-width="1.5" stroke-linecap="round" stroke-linejoin="round"/>
</svg>
