<svg width="32" height="32" viewBox="0 0 32 32" fill="none" xmlns="http://www.w3.org/2000/svg">
<path d="M22.6267 19.2535C24.4534 19.5602 26.4667 19.2402 27.88 18.2934C29.76 17.0401 29.76 14.9866 27.88 13.7332C26.4534 12.7865 24.4134 12.4665 22.5867 12.7865M9.33338 19.2535C7.50671 19.5602 5.49338 19.2402 4.08004 18.2934C2.20004 17.0401 2.20004 14.9866 4.08004 13.7332C5.50671 12.7865 7.54671 12.4665 9.37337 12.7865M24 9.54635C23.92 9.53302 23.8267 9.53302 23.7467 9.54635C21.9067 9.47968 20.44 7.97294 20.44 6.10618C20.44 4.19943 21.9734 2.66602 23.88 2.66602C25.7867 2.66602 27.32 4.21276 27.32 6.10618C27.3067 7.97294 25.84 9.47968 24 9.54635ZM7.96004 9.54635C8.04004 9.53302 8.13337 9.53302 8.21337 9.54635C10.0534 9.47968 11.52 7.97294 11.52 6.10618C11.52 4.19943 9.98671 2.66602 8.08004 2.66602C6.17338 2.66602 4.64004 4.21276 4.64004 6.10618C4.65337 7.97294 6.12004 9.47968 7.96004 9.54635ZM16 19.5068C15.92 19.4935 15.8267 19.4935 15.7467 19.5068C13.9067 19.4402 12.44 17.9334 12.44 16.0667C12.44 14.1599 13.9734 12.6265 15.88 12.6265C17.7867 12.6265 19.32 14.1732 19.32 16.0667C19.3067 17.9334 17.84 19.4535 16 19.5068ZM12.12 23.707C10.24 24.9604 10.24 27.0139 12.12 28.2673C14.2534 29.694 17.7467 29.694 19.88 28.2673C21.76 27.0139 21.76 24.9604 19.88 23.707C17.76 22.2936 14.2534 22.2936 12.12 23.707Z" stroke="#0CA678" stroke-width="1.5" stroke-linecap="round" stroke-linejoin="round"/>
</svg>
