<svg width="25" height="25" viewBox="0 0 25 25" fill="none" xmlns="http://www.w3.org/2000/svg">
<path d="M3.90991 22.5C3.90991 18.63 7.75991 15.5 12.4999 15.5C13.4599 15.5 14.3899 15.63 15.2599 15.87M19.9899 18.48H17.0099M18.4999 17.02V20.01M17.4999 7.5C17.4999 10.2614 15.2613 12.5 12.4999 12.5C9.73848 12.5 7.49991 10.2614 7.49991 7.5C7.49991 4.73858 9.73848 2.5 12.4999 2.5C15.2613 2.5 17.4999 4.73858 17.4999 7.5ZM22.4999 18.5C22.4999 18.82 22.4599 19.13 22.3799 19.43C22.2899 19.83 22.1299 20.22 21.9199 20.56C21.2299 21.72 19.9599 22.5 18.4999 22.5C17.4699 22.5 16.5399 22.11 15.8399 21.47C15.5399 21.21 15.2799 20.9 15.0799 20.56C14.7099 19.96 14.4999 19.25 14.4999 18.5C14.4999 17.42 14.9299 16.43 15.6299 15.71C16.3599 14.96 17.3799 14.5 18.4999 14.5C19.6799 14.5 20.7499 15.01 21.4699 15.83C22.1099 16.54 22.4999 17.48 22.4999 18.5Z" stroke="#4263EB" stroke-width="1.5" stroke-miterlimit="10" stroke-linecap="round" stroke-linejoin="round"/>
</svg>
