<svg width="25" height="25" viewBox="0 0 25 25" fill="none" xmlns="http://www.w3.org/2000/svg">
<path d="M3.90991 22.5C3.90991 18.63 7.75991 15.5 12.4999 15.5C13.4599 15.5 14.3899 15.63 15.2599 15.87M16.9399 18.5L17.9299 19.49L20.0599 17.52M17.4999 7.5C17.4999 10.2614 15.2613 12.5 12.4999 12.5C9.73848 12.5 7.49991 10.2614 7.49991 7.5C7.49991 4.73858 9.73848 2.5 12.4999 2.5C15.2613 2.5 17.4999 4.73858 17.4999 7.5ZM22.4999 18.5C22.4999 19.25 22.2899 19.96 21.9199 20.56C21.7099 20.92 21.4399 21.24 21.1299 21.5C20.4299 22.13 19.5099 22.5 18.4999 22.5C17.0399 22.5 15.7699 21.72 15.0799 20.56C14.7099 19.96 14.4999 19.25 14.4999 18.5C14.4999 17.24 15.0799 16.11 15.9999 15.38C16.6899 14.83 17.5599 14.5 18.4999 14.5C20.7099 14.5 22.4999 16.29 22.4999 18.5Z" stroke="#0CA678" stroke-width="1.5" stroke-linecap="round" stroke-linejoin="round"/>
</svg>
